<svg viewBox="0 0 128 128" fill="none" xmlns="http://www.w3.org/2000/svg">
<g clip-path="url(#clip0)">
<path d="M55.296 56.768C55.68 57.5787 55.872 58.368 55.872 59.136C55.872 60.544 55.296 61.7387 54.144 62.72C53.0347 63.7013 51.7547 64.192 50.304 64.192C49.3227 64.192 48.4267 63.936 47.616 63.424C46.8053 62.912 46.1653 62.144 45.696 61.12L42.816 54.656H22.08L19.136 61.12C18.6667 62.144 18.0053 62.912 17.152 63.424C16.3413 63.936 15.4453 64.192 14.464 64.192C13.0133 64.192 11.6907 63.7013 10.496 62.72C9.344 61.7387 8.768 60.544 8.768 59.136C8.768 58.368 8.96 57.5787 9.344 56.768L26.24 22.08C26.7947 20.928 27.6053 20.0533 28.672 19.456C29.7813 18.816 30.9973 18.496 32.32 18.496C33.6 18.496 34.7947 18.816 35.904 19.456C37.0133 20.0533 37.8453 20.928 38.4 22.08L55.296 56.768ZM38.848 45.824L32.448 31.552L26.048 45.824H38.848ZM91.0555 40.576C93.7008 41.3867 95.7275 42.752 97.1355 44.672C98.5435 46.5493 99.2475 48.8747 99.2475 51.648C99.2475 54.1227 98.5862 56.2987 97.2635 58.176C95.9835 60.0107 94.1275 61.44 91.6955 62.464C89.3062 63.488 86.4902 64 83.2475 64H66.2235C64.4742 64 63.1302 63.5307 62.1915 62.592C61.2528 61.6533 60.7835 60.3093 60.7835 58.56V24.32C60.7835 22.5707 61.2528 21.2267 62.1915 20.288C63.1302 19.3493 64.4742 18.88 66.2235 18.88H82.6075C87.3435 18.88 91.0982 19.9467 93.8715 22.08C96.6875 24.1707 98.0955 27.008 98.0955 30.592C98.0955 32.896 97.4768 34.944 96.2395 36.736C95.0022 38.4853 93.2742 39.7653 91.0555 40.576ZM72.2395 36.608H80.6235C82.8422 36.608 84.4635 36.2667 85.4875 35.584C86.5115 34.9013 87.0235 33.8133 87.0235 32.32C87.0235 30.7413 86.5115 29.5893 85.4875 28.864C84.4635 28.1387 82.8422 27.776 80.6235 27.776H72.2395V36.608ZM81.7755 55.104C84.1222 55.104 85.7862 54.7413 86.7675 54.016C87.7915 53.248 88.3035 52.0107 88.3035 50.304C88.3035 48.5973 87.7915 47.3813 86.7675 46.656C85.7862 45.888 84.1222 45.504 81.7755 45.504H72.2395V55.104H81.7755Z" fill="black"/>
<path d="M69.1924 81.4056C70.364 80.234 72.2635 80.234 73.435 81.4056L93.234 101.205C94.4056 102.376 94.4056 104.276 93.234 105.447L86.1629 112.518C84.9914 113.69 83.0919 113.69 81.9203 112.518L62.1213 92.7193C60.9497 91.5477 60.9497 89.6482 62.1213 88.4767L69.1924 81.4056Z" fill="black"/>
<path d="M74.8492 105.447C73.6777 104.276 73.6777 102.376 74.8492 101.205L110.205 65.8492C111.376 64.6777 113.276 64.6777 114.447 65.8492L121.518 72.9203C122.69 74.0919 122.69 75.9914 121.518 77.163L86.1629 112.518C84.9914 113.69 83.0919 113.69 81.9203 112.518L74.8492 105.447Z" fill="black"/>
</g>
<defs>
<clipPath id="clip0">
<rect width="128" height="128" fill="white"/>
</clipPath>
</defs>
</svg>
