<svg viewBox="0 0 128 128" fill="none" xmlns="http://www.w3.org/2000/svg">
<circle cx="64" cy="45" r="26" fill="black"/>
<mask id="mask0" mask-type="alpha" maskUnits="userSpaceOnUse" x="0" y="0" width="128" height="128">
<circle cx="64" cy="64" r="64" fill="#C4C4C4"/>
<circle cx="64" cy="64" r="64" stroke="black"/>
</mask>
<g mask="url(#mask0)">
<circle cx="64" cy="64" r="61.5" stroke="black" stroke-width="5"/>
<ellipse cx="64" cy="119.406" rx="54" ry="46.4062" fill="black"/>
<path d="M24.5 27.5C32.5 27.1 34.1667 32.6667 34 35.5C37.1667 32.8333 42 27.5 36 27.5C30 27.5 32.1667 19.5 34 15.5C27.5 19.6667 16.5 27.9 24.5 27.5Z" fill="#80D772"/>
<path d="M90.5 29.7925C97.4303 33.8089 93.9465 33.1304 92.2653 35.4172C96.3731 34.9023 103.33 33.0565 98.2955 29.7925C93.2611 26.5285 90.2857 17.359 94 15C86.2793 14.9602 83.5697 25.7761 90.5 29.7925Z" fill="#80D772"/>
<path d="M55.6168 10.2241C62.5471 14.2405 58.7124 20.6802 57.0312 22.967C61.139 22.4521 68.0959 20.6064 63.0614 17.3423C60.8566 15.9129 64.0875 12.8507 63.0614 10.2241C61.7447 6.85304 56.6782 3.87569 58.7659 2.54981C51.0452 2.50996 48.6865 6.20767 55.6168 10.2241Z" fill="#80D772"/>
<path d="M56.9531 95.5664C56.9141 95.5195 56.8828 95.4648 56.8594 95.4023C56.8359 95.3398 56.8164 95.2773 56.8008 95.2148C56.7852 95.1445 56.7734 95.0742 56.7656 95.0039V94.8047C56.7656 94.75 56.7695 94.6992 56.7773 94.6523C56.7852 94.5977 56.8047 94.5547 56.8359 94.5234C57.0781 94.4609 57.3398 94.4141 57.6211 94.3828C57.9023 94.3438 58.168 94.3086 58.418 94.2773C58.707 94.2461 58.9922 94.2188 59.2734 94.1953C59.3516 94.1406 59.4219 94.1016 59.4844 94.0781C59.5469 94.0547 59.5977 94.0547 59.6367 94.0781C59.6523 94.0781 59.668 94.1094 59.6836 94.1719H59.7305C60.0117 94.1641 60.2812 94.1562 60.5391 94.1484C60.7578 94.1406 60.9727 94.1406 61.1836 94.1484C61.4023 94.1484 61.5703 94.1523 61.6875 94.1602C61.75 94.168 61.7969 94.2148 61.8281 94.3008C61.8594 94.3867 61.8672 94.4961 61.8516 94.6289C61.8438 94.7617 61.8086 94.9062 61.7461 95.0625C61.6836 95.2188 61.582 95.3672 61.4414 95.5078C61.2617 95.4609 61.0742 95.4297 60.8789 95.4141C60.6836 95.3906 60.5078 95.3711 60.3516 95.3555C60.1562 95.3398 59.9727 95.332 59.8008 95.332H59.7422C59.75 95.6445 59.7539 95.9922 59.7539 96.375C59.7539 96.75 59.75 97.1328 59.7422 97.5234C59.7422 97.9062 59.7383 98.2852 59.7305 98.6602C59.7227 99.0273 59.7148 99.3555 59.707 99.6445C59.707 100.105 59.707 100.504 59.707 100.84C59.707 101.168 59.7188 101.449 59.7422 101.684C59.7656 101.91 59.8008 102.094 59.8477 102.234C59.8945 102.375 59.9609 102.488 60.0469 102.574C60.0391 102.582 60.0156 102.605 59.9766 102.645C59.9453 102.691 59.8984 102.738 59.8359 102.785C59.7812 102.832 59.7109 102.875 59.625 102.914C59.5469 102.953 59.457 102.969 59.3555 102.961C59.0977 102.953 58.9062 102.867 58.7812 102.703C58.6562 102.539 58.5703 102.309 58.5234 102.012C58.4766 101.715 58.457 101.355 58.4648 100.934C58.4805 100.512 58.5039 100.031 58.5352 99.4922C58.5586 99.125 58.5781 98.7461 58.5938 98.3555C58.6172 97.9648 58.6367 97.5898 58.6523 97.2305C58.6758 96.8633 58.6953 96.5234 58.7109 96.2109C58.7266 95.8906 58.7422 95.6133 58.7578 95.3789C58.5625 95.3867 58.3633 95.4023 58.1602 95.4258C57.9805 95.4414 57.7852 95.4609 57.5742 95.4844C57.3633 95.5078 57.1562 95.5352 56.9531 95.5664ZM61.7227 97.8516C61.7227 97.8047 61.7852 97.7539 61.9102 97.6992C62.0352 97.6445 62.1719 97.6016 62.3203 97.5703C62.4766 97.5312 62.6172 97.5117 62.7422 97.5117C62.875 97.5039 62.9414 97.5312 62.9414 97.5938C62.9414 97.7109 62.9336 97.8789 62.918 98.0977C62.9023 98.3086 62.8828 98.5352 62.8594 98.7773C62.8359 99.0117 62.8125 99.25 62.7891 99.4922C62.7656 99.7266 62.75 99.9258 62.7422 100.09C62.7266 100.262 62.7109 100.449 62.6953 100.652C62.6797 100.824 62.668 101.016 62.6602 101.227C62.6523 101.438 62.6523 101.652 62.6602 101.871C62.6602 101.91 62.6211 101.949 62.543 101.988C62.4648 102.027 62.3789 102.055 62.2852 102.07C62.1914 102.094 62.1016 102.105 62.0156 102.105C61.9297 102.105 61.8828 102.09 61.875 102.059C61.8594 102.027 61.8438 101.973 61.8281 101.895C61.8125 101.816 61.7969 101.707 61.7812 101.566C61.7656 101.418 61.7539 101.23 61.7461 101.004C61.7383 100.77 61.7422 100.488 61.7578 100.16C61.7891 99.5117 61.793 99.0117 61.7695 98.6602C61.7461 98.3008 61.7305 98.0312 61.7227 97.8516ZM62.543 95.5195C62.6992 95.5195 62.8477 95.5664 62.9883 95.6602C63.1289 95.7539 63.1992 95.8789 63.1992 96.0352C63.1992 96.1523 63.168 96.2656 63.1055 96.375C63.0508 96.4844 62.9805 96.582 62.8945 96.668C62.8086 96.7539 62.7109 96.8242 62.6016 96.8789C62.4922 96.9258 62.3906 96.9492 62.2969 96.9492C62.1719 96.9492 62.0703 96.9297 61.9922 96.8906C61.9141 96.8438 61.8516 96.793 61.8047 96.7383C61.7656 96.6758 61.7383 96.6094 61.7227 96.5391C61.707 96.4688 61.6992 96.4023 61.6992 96.3398C61.6992 96.2617 61.7109 96.1758 61.7344 96.082C61.7578 95.9805 61.8008 95.8906 61.8633 95.8125C61.9258 95.7266 62.0117 95.6562 62.1211 95.6016C62.2305 95.5469 62.3711 95.5195 62.543 95.5195ZM62.25 96.6094C62.2969 96.6094 62.3477 96.5938 62.4023 96.5625C62.4648 96.5234 62.5195 96.4805 62.5664 96.4336C62.6211 96.3867 62.6641 96.3359 62.6953 96.2812C62.7344 96.2266 62.7539 96.1797 62.7539 96.1406C62.7539 96.0781 62.7227 96.0469 62.6602 96.0469C62.6211 96.0469 62.5703 96.0625 62.5078 96.0938C62.4531 96.125 62.3984 96.1641 62.3438 96.2109C62.2891 96.25 62.2422 96.2969 62.2031 96.3516C62.1719 96.3984 62.1562 96.4453 62.1562 96.4922C62.1562 96.5703 62.1875 96.6094 62.25 96.6094ZM66.3398 98.3438C66.2773 98.3438 66.207 98.3789 66.1289 98.4492C66.0586 98.5117 65.9883 98.6016 65.918 98.7188C65.8477 98.8281 65.7773 98.9531 65.707 99.0938C65.6367 99.2266 65.5742 99.3633 65.5195 99.5039C65.3867 99.832 65.2578 100.168 65.1328 100.512C65.0078 100.855 64.9336 101.152 64.9102 101.402C64.9023 101.426 64.8984 101.449 64.8984 101.473C64.8984 101.488 64.8984 101.504 64.8984 101.52C64.8906 101.535 64.8867 101.559 64.8867 101.59C64.8711 101.699 64.8477 101.789 64.8164 101.859C64.793 101.922 64.7383 101.965 64.6523 101.988C64.5586 102.004 64.4648 102.016 64.3711 102.023C64.2773 102.031 64.1875 102.023 64.1016 102C64.0469 101.984 64.0039 101.957 63.9727 101.918C63.9492 101.871 63.9297 101.82 63.9141 101.766C63.9062 101.703 63.8984 101.645 63.8906 101.59C63.8906 101.535 63.8906 101.488 63.8906 101.449C63.8906 101.402 63.8945 101.258 63.9023 101.016C63.9102 100.766 63.918 100.484 63.9258 100.172C63.9336 99.8594 63.9375 99.5547 63.9375 99.2578C63.9375 98.9531 63.9336 98.7227 63.9258 98.5664C63.9102 98.457 63.8945 98.3555 63.8789 98.2617C63.8633 98.1758 63.8438 98.0898 63.8203 98.0039C63.8047 97.918 63.7773 97.8438 63.7383 97.7812C63.8242 97.7344 63.9102 97.6953 63.9961 97.6641C64.082 97.6328 64.1602 97.6094 64.2305 97.5938C64.3164 97.5703 64.3945 97.5547 64.4648 97.5469C64.6523 97.5312 64.7969 97.5312 64.8984 97.5469C65.0078 97.5625 65.0625 97.6445 65.0625 97.793C65.0625 97.9258 65.0508 98.1328 65.0273 98.4141C65.0117 98.6875 64.9922 99.0703 64.9688 99.5625C65.0547 99.3672 65.1562 99.1484 65.2734 98.9062C65.3906 98.6562 65.5156 98.4258 65.6484 98.2148C65.7812 97.9961 65.918 97.8164 66.0586 97.6758C66.1992 97.5273 66.332 97.4531 66.457 97.4531C66.543 97.4531 66.6406 97.4727 66.75 97.5117C66.8672 97.543 66.9766 97.5898 67.0781 97.6523C67.1797 97.707 67.2695 97.7695 67.3477 97.8398C67.4336 97.9102 67.4922 97.9805 67.5234 98.0508C67.5547 98.1289 67.5742 98.25 67.582 98.4141C67.5898 98.5781 67.5898 98.7617 67.582 98.9648C67.6445 98.8164 67.7148 98.6719 67.793 98.5312C67.8711 98.3906 67.9492 98.2617 68.0273 98.1445C68.1133 98.0195 68.1992 97.9141 68.2852 97.8281C68.3711 97.7422 68.4492 97.6836 68.5195 97.6523C68.6133 97.6133 68.7266 97.6055 68.8594 97.6289C68.9922 97.6523 69.1211 97.6953 69.2461 97.7578C69.3789 97.8125 69.4922 97.8789 69.5859 97.957C69.6875 98.0352 69.75 98.1094 69.7734 98.1797C69.7969 98.2578 69.8164 98.3789 69.832 98.543C69.8477 98.707 69.8594 98.8867 69.8672 99.082C69.875 99.2773 69.8789 99.4805 69.8789 99.6914C69.8789 99.8945 69.875 100.074 69.8672 100.23C69.8516 100.684 69.8555 101.043 69.8789 101.309C69.9023 101.566 69.9961 101.758 70.1602 101.883C70.0508 101.953 69.9492 102.004 69.8555 102.035C69.7617 102.074 69.6797 102.102 69.6094 102.117C69.5234 102.141 69.4492 102.152 69.3867 102.152C69.3008 102.152 69.2305 102.129 69.1758 102.082C69.1211 102.043 69.0781 101.988 69.0469 101.918C69.0156 101.848 68.9961 101.77 68.9883 101.684C68.9805 101.598 68.9766 101.512 68.9766 101.426C68.9766 101.348 68.9805 101.219 68.9883 101.039C69.0039 100.852 69.0156 100.641 69.0234 100.406C69.0312 100.172 69.0312 99.9336 69.0234 99.6914C69.0156 99.4414 68.9961 99.2148 68.9648 99.0117C68.9414 98.8008 68.8984 98.6289 68.8359 98.4961C68.7734 98.3633 68.6875 98.2969 68.5781 98.2969C68.4844 98.2969 68.3945 98.3555 68.3086 98.4727C68.2227 98.582 68.1406 98.7305 68.0625 98.918C67.9844 99.0977 67.9141 99.3008 67.8516 99.5273C67.7969 99.7461 67.7461 99.9648 67.6992 100.184C67.6523 100.402 67.6172 100.605 67.5938 100.793C67.5703 100.973 67.5586 101.117 67.5586 101.227L67.5469 101.121C67.5469 101.27 67.5469 101.406 67.5469 101.531C67.5547 101.656 67.5625 101.781 67.5703 101.906C67.5781 101.953 67.5352 101.992 67.4414 102.023C67.3477 102.062 67.2422 102.078 67.125 102.07C67.0156 102.07 66.9141 102.047 66.8203 102C66.7266 101.953 66.6797 101.875 66.6797 101.766C66.6797 101.688 66.6797 101.57 66.6797 101.414C66.6797 101.258 66.6758 101.082 66.668 100.887C66.668 100.691 66.6641 100.488 66.6562 100.277C66.6562 100.059 66.6523 99.8516 66.6445 99.6562C66.6445 99.5078 66.6406 99.3555 66.6328 99.1992C66.6328 99.043 66.625 98.9023 66.6094 98.7773C66.5938 98.6445 66.5625 98.5391 66.5156 98.4609C66.4766 98.3828 66.418 98.3438 66.3398 98.3438Z" fill="#A7A7A7"/>
</g>
</svg>
